<?xml version="1.0" standalone="no"?>
<!DOCTYPE svg PUBLIC "-//W3C//DTD SVG 20010904//EN"
 "http://www.w3.org/TR/2001/REC-SVG-20010904/DTD/svg10.dtd">
<svg version="1.0" xmlns="http://www.w3.org/2000/svg"
 width="16.000000pt" height="16.000000pt" viewBox="0 0 16.000000 16.000000"
 preserveAspectRatio="xMidYMid meet">
<metadata>
Created by potrace 1.11, written by Peter Selinger 2001-2013
</metadata>
<g transform="translate(0.000000,16.000000) scale(0.003704,-0.003704)"
fill="#000000" stroke="none">
<path d="M0 2160 l0 -2160 2160 0 2160 0 0 2160 0 2160 -2160 0 -2160 0 0
-2160z m3273 1167 c-3 -15 -2 -18 4 -9 7 9 12 6 21 -13 6 -14 16 -25 22 -25 7
0 4 -7 -4 -16 -9 -8 -22 -12 -28 -8 -7 4 -4 -2 7 -13 19 -20 20 -20 29 -2 5
11 15 19 23 19 8 0 12 -4 8 -9 -3 -6 1 -13 9 -18 8 -4 16 -14 18 -22 4 -18 46
-61 59 -61 6 0 7 -4 4 -10 -3 -5 3 -10 13 -10 11 0 25 -7 33 -16 7 -8 21 -13
31 -11 10 3 21 1 24 -5 3 -5 12 -7 20 -4 7 3 16 1 19 -5 4 -5 12 -6 18 -2 24
15 43 12 58 -8 7 -12 22 -30 31 -41 10 -11 16 -23 14 -27 -2 -3 7 -14 20 -24
24 -18 24 -18 25 5 0 13 3 17 6 11 2 -7 11 -13 19 -13 17 0 19 -30 2 -31 -10
0 -10 -2 0 -6 6 -2 12 -11 12 -18 0 -7 9 -15 20 -18 12 -3 20 0 20 8 0 7 8 15
18 17 16 5 19 -1 21 -38 0 -25 -3 -44 -9 -44 -6 0 0 -11 14 -24 15 -13 26 -28
26 -35 0 -6 4 -11 10 -11 5 0 7 -6 4 -13 -7 -19 25 -45 35 -29 4 7 15 10 24 6
12 -4 15 -16 12 -45 -3 -33 -1 -39 16 -39 12 0 19 -7 19 -19 0 -23 -22 -40
-28 -23 -5 17 -42 15 -42 -3 0 -8 11 -25 25 -37 14 -12 25 -28 25 -35 0 -7 5
-13 12 -13 6 0 9 -3 6 -6 -3 -3 5 -16 18 -29 37 -37 32 -55 -13 -44 -26 5 -40
4 -45 -4 -8 -13 19 -27 38 -20 18 7 25 -38 8 -54 -12 -13 -12 -16 1 -29 14
-14 19 -29 16 -46 0 -5 4 -8 9 -8 6 0 10 -21 10 -46 0 -37 -3 -45 -15 -40 -23
8 -19 -28 6 -50 18 -16 18 -20 5 -29 -8 -7 -18 -26 -21 -43 -4 -27 -2 -34 20
-44 24 -11 34 -27 18 -29 -75 -7 -103 -70 -68 -153 8 -20 14 -36 13 -37 -2 0
-11 -2 -21 -4 -26 -5 -29 -9 -29 -49 0 -26 -3 -33 -15 -29 -12 5 -14 -3 -10
-41 3 -25 1 -49 -4 -52 -5 -3 -9 -15 -8 -27 0 -12 3 -17 5 -10 3 7 12 9 20 6
12 -4 11 -11 -6 -40 -11 -19 -20 -43 -20 -53 0 -16 -5 -18 -29 -14 -26 6 -29
4 -28 -20 1 -14 5 -26 8 -26 9 0 -2 -60 -12 -66 -5 -3 -9 0 -9 5 0 6 -4 11
-10 11 -5 0 -10 -11 -10 -25 0 -14 5 -25 11 -25 8 0 8 -4 2 -12 -5 -7 -10 -24
-11 -38 -1 -13 -9 -31 -19 -38 -10 -7 -17 -18 -15 -23 1 -5 -2 -9 -8 -9 -5 0
-10 -8 -10 -18 0 -10 -9 -36 -19 -58 -12 -24 -16 -43 -10 -48 13 -14 11 -26
-5 -26 -8 0 -18 -9 -21 -20 -3 -11 -11 -20 -16 -20 -5 0 -9 -7 -9 -16 0 -10
-6 -14 -14 -11 -8 3 -17 3 -21 -1 -4 -4 -12 -7 -18 -7 -7 0 -12 -4 -12 -10 -2
-34 -17 -63 -32 -61 -15 1 -18 -8 -19 -54 -1 -39 -5 -54 -15 -52 -15 4 -38 32
-39 49 0 6 -9 9 -20 6 -23 -6 -27 -23 -5 -23 20 0 19 -36 -1 -44 -9 -3 -19 -4
-24 -1 -4 3 -21 -2 -36 -10 -17 -9 -30 -11 -32 -5 -6 17 -48 11 -67 -10 -11
-12 -13 -20 -6 -20 7 0 9 -5 6 -10 -18 -29 -102 16 -113 61 -10 39 -10 49 0
49 7 0 4 6 -6 13 -9 7 -18 21 -20 31 -1 9 -7 21 -13 24 -5 4 -12 17 -15 30 -5
18 -2 22 18 22 35 0 38 1 52 12 18 15 15 38 -5 38 -11 0 -14 3 -7 8 15 9 10
38 -10 58 -21 20 -21 64 -1 64 8 0 15 5 15 10 0 6 6 10 13 10 7 0 25 5 39 12
24 12 25 13 6 28 -25 20 -16 42 23 59 l31 14 -26 16 c-33 20 -33 39 -2 51 17
6 23 14 19 28 -3 14 2 21 19 25 27 7 33 45 9 63 -21 16 -6 44 24 44 14 0 25 6
25 13 0 6 3 22 6 35 5 16 2 22 -10 22 -28 0 -18 31 14 43 33 12 38 24 15 33
-8 4 -12 10 -9 15 3 5 -2 9 -10 9 -10 0 -13 6 -10 15 4 8 10 15 16 15 5 0 6
-4 3 -10 -3 -5 1 -10 9 -10 21 0 21 39 1 46 -8 4 -15 10 -15 16 0 5 5 6 10 3
9 -6 11 -1 14 38 1 6 8 17 16 24 11 9 11 12 2 13 -12 0 -11 38 3 60 3 5 -3 10
-14 10 -11 0 -23 5 -27 11 -4 7 3 10 22 7 15 -2 29 2 31 9 3 8 -5 11 -26 8
-26 -3 -31 0 -31 18 0 22 20 62 20 40 0 -6 8 -9 19 -6 19 5 19 5 0 39 -10 19
-15 34 -10 34 13 0 40 61 34 77 -3 7 -11 13 -18 13 -23 0 -21 44 2 70 27 30
29 47 6 47 -50 0 -62 19 -15 25 15 2 27 8 27 13 0 6 7 25 14 43 12 29 12 35 0
43 -8 5 -9 9 -4 9 6 0 2 7 -8 14 -15 12 -23 34 -26 80 -1 5 -7 4 -14 -2 -17
-15 -32 -3 -45 37 -17 49 -15 53 18 48 21 -4 31 -1 35 11 7 23 5 37 -5 35 -8
-2 -24 33 -22 47 0 3 -4 13 -9 23 -8 13 -6 17 10 17 15 0 19 5 14 16 -4 11 -8
12 -13 4 -5 -8 -12 -7 -24 5 -15 16 -20 35 -17 63 1 7 -4 11 -11 10 -8 -2 -14
9 -16 30 -2 17 -7 32 -13 32 -15 0 -10 47 7 54 8 3 12 11 9 17 -8 12 14 71 25
64 4 -2 6 8 5 23 -1 33 -44 47 -46 15 -1 -17 -1 -17 -6 0 -5 18 -5 18 -19 0
-13 -17 -13 -17 -14 5 0 12 0 25 1 29 0 3 -12 12 -28 18 -15 7 -45 29 -66 48
-29 27 -37 41 -32 57 3 11 13 20 20 20 20 0 29 20 16 33 -9 9 -14 9 -20 -1 -6
-10 -10 -9 -14 7 -3 13 3 26 16 38 15 13 18 14 13 3 -4 -10 -3 -10 5 1 17 23
38 13 32 -14z m-106 -39 c-3 -8 -6 -5 -6 6 -1 11 2 17 5 13 3 -3 4 -12 1 -19z
m-787 -28 c0 -5 5 -10 10 -10 15 0 50 -38 50 -55 0 -8 -4 -15 -10 -15 -5 0
-10 -8 -10 -18 0 -13 -7 -18 -22 -18 -17 1 -22 -4 -20 -16 2 -10 -2 -18 -8
-18 -5 0 -10 5 -10 12 0 6 -9 3 -21 -8 -17 -15 -22 -16 -29 -4 -5 8 -6 17 -2
20 4 3 16 15 26 28 19 22 19 23 1 36 -20 15 -21 13 20 63 12 15 25 17 25 3z
m-1673 -20 c3 -11 10 -20 15 -20 6 0 5 -6 -2 -15 -10 -12 -9 -16 6 -21 11 -4
23 -9 28 -12 5 -3 6 0 2 6 -6 11 19 42 34 42 5 0 12 -5 16 -12 4 -6 3 -8 -3
-5 -10 6 -23 -13 -23 -34 0 -16 18 -10 23 9 4 14 5 13 6 -4 2 -39 -63 -77 -74
-43 -4 10 -13 19 -21 19 -10 0 -12 -5 -8 -12 5 -9 2 -9 -9 1 -9 7 -17 10 -17
6 0 -4 -7 -2 -15 5 -25 21 -19 50 10 50 14 0 25 5 25 10 0 6 -9 10 -20 10 -11
0 -20 6 -20 14 0 8 -6 17 -12 19 -7 3 2 6 20 6 26 1 35 -4 39 -19z m771 -30
c7 0 12 -5 12 -11 0 -8 4 -8 13 -2 23 18 45 22 50 9 3 -8 -1 -13 -10 -12 -8 0
-19 -9 -24 -21 -5 -14 -5 -23 1 -23 6 0 11 8 11 18 1 15 2 15 6 -1 5 -18 6
-18 24 -1 10 9 22 15 25 11 5 -5 -30 -29 -48 -33 -5 -1 -9 -2 -10 -3 -11 -8
-68 -9 -73 -1 -4 6 -12 7 -18 3 -20 -12 -31 -11 -45 3 -7 8 -9 14 -5 14 4 0 2
4 -6 9 -9 6 -24 5 -39 0 -13 -5 -27 -7 -32 -4 -5 3 -11 -3 -14 -12 -4 -15 -5
-15 -3 1 1 11 11 20 22 22 11 1 39 5 62 8 24 4 44 2 48 -4 3 -5 13 -10 21 -10
8 0 12 5 9 10 -4 6 -11 8 -16 5 -5 -4 -9 1 -9 9 0 9 -3 15 -7 15 -22 -4 -25 3
-7 15 16 13 21 13 35 0 8 -8 21 -14 27 -14z m385 -29 c-12 -20 -12 -22 0 -8 8
9 25 17 38 16 13 0 18 -3 10 -6 -22 -9 -52 -43 -46 -53 3 -5 1 -11 -5 -15 -6
-4 -10 4 -10 19 0 14 -8 30 -17 35 -17 10 -16 10 2 11 11 1 14 4 8 7 -16 6
-17 25 -1 41 10 10 15 9 25 -4 9 -13 9 -22 -4 -43z m-618 39 c-3 -6 0 -13 8
-16 9 -3 13 -13 10 -25 -3 -12 0 -19 8 -19 8 0 5 -6 -7 -14 -22 -16 -40 -16
-64 -1 -8 5 -24 9 -35 8 -14 -2 -15 -1 -5 4 8 3 18 11 23 17 5 8 10 6 17 -4 8
-13 10 -13 10 2 0 10 8 27 17 38 18 21 28 27 18 10z m471 -4 c16 -8 41 -16 56
-18 34 -5 44 -14 23 -21 -8 -4 -15 -1 -15 5 0 7 -5 6 -15 -2 -13 -11 -18 -10
-30 6 -9 10 -15 15 -14 9 3 -22 -2 -29 -11 -15 -7 11 -11 9 -19 -12 -5 -14
-15 -29 -20 -33 -7 -4 -7 3 1 19 12 27 3 50 -11 27 -5 -7 -11 -12 -15 -12 -18
3 -24 -1 -34 -21 -8 -17 -11 -19 -11 -6 -1 20 25 48 44 48 8 0 11 7 8 20 -7
25 20 27 63 6z m-589 -39 c18 -22 18 -22 -3 -4 -22 18 -54 23 -54 8 0 -6 -9
-9 -20 -8 -11 1 -20 8 -20 15 0 11 3 12 14 3 10 -9 15 -8 19 3 8 19 41 10 64
-17z m984 -17 c6 0 7 5 4 10 -3 6 1 10 10 10 14 0 14 -3 -2 -25 -11 -15 -28
-24 -43 -24 -14 0 -19 3 -12 6 6 2 12 15 12 27 0 30 14 43 18 17 2 -12 8 -21
13 -21z m-151 19 c0 -10 50 -6 93 7 21 7 22 -13 2 -40 -15 -19 -15 -19 -15 2
0 18 -5 22 -25 19 -13 -1 -27 -6 -31 -10 -8 -7 -44 -10 -44 -3 0 2 -3 11 -6
20 -4 11 -1 16 10 16 9 0 16 -5 16 -11z m-862 -21 c-5 -16 -48 -24 -48 -10 0
11 17 20 38 21 8 1 12 -5 10 -11z m-413 -28 c-3 -5 -12 -10 -18 -10 -7 0 -6 4
3 10 19 12 23 12 15 0z m1050 -178 c4 10 11 15 16 12 5 -3 13 5 18 18 8 22 8
22 15 2 10 -32 60 -76 79 -68 10 3 17 10 17 15 0 5 13 7 29 4 32 -6 52 12 30
26 -9 6 -10 9 -2 9 6 0 13 8 16 18 3 14 6 12 14 -8 8 -18 7 -27 -1 -33 -7 -4
-4 -9 9 -13 32 -8 40 -4 37 19 -3 28 15 57 26 41 6 -9 16 -15 47 -25 6 -1 18
-12 27 -23 15 -19 17 -19 18 -4 0 21 50 21 50 0 0 -7 4 -11 9 -7 5 3 16 -1 23
-9 12 -12 16 -9 27 15 14 31 41 30 41 -2 0 -10 7 -19 15 -19 8 0 15 4 15 8 0
14 48 32 82 32 23 0 29 -4 24 -15 -3 -8 -1 -15 4 -15 6 0 10 7 10 16 0 8 5 12
11 9 6 -4 8 -13 5 -21 -3 -8 1 -14 9 -14 8 0 15 -4 15 -10 0 -5 8 -2 18 8 14
13 15 19 5 25 -17 10 -17 47 0 47 7 0 22 -7 34 -15 18 -13 31 -13 70 -5 33 8
49 8 51 0 2 -5 8 -7 13 -4 6 3 16 0 24 -6 17 -14 10 -60 -12 -73 -7 -4 -13
-14 -13 -22 0 -7 -6 -16 -12 -18 -8 -3 -6 -6 5 -6 10 -1 17 -9 17 -22 0 -18
-2 -19 -15 -9 -14 12 -17 8 -14 -17 0 -3 -6 -10 -15 -15 -17 -10 -22 -53 -7
-63 5 -3 12 7 14 22 3 16 3 -10 0 -56 -5 -76 -4 -83 12 -77 13 5 16 2 11 -11
-4 -9 -1 -20 6 -24 8 -5 3 -10 -15 -14 -15 -4 -27 -14 -27 -22 0 -8 5 -13 12
-11 13 5 48 -21 48 -34 0 -5 -6 -8 -13 -8 -16 0 -36 -39 -30 -58 3 -6 9 -9 14
-6 9 5 8 -3 -5 -63 -4 -19 -1 -23 20 -23 30 0 32 -18 2 -22 -20 -3 -23 -9 -22
-40 1 -31 -2 -38 -17 -38 -21 0 -27 -36 -7 -42 10 -4 10 -11 2 -29 -9 -20 -8
-25 10 -34 12 -6 21 -16 21 -22 0 -6 3 -14 6 -17 9 -9 -2 -66 -12 -60 -5 3 -9
0 -9 -5 0 -6 5 -11 10 -11 6 0 10 -4 10 -10 0 -5 -6 -7 -14 -4 -10 4 -15 -1
-15 -13 0 -10 -2 -31 -4 -48 -2 -16 0 -38 5 -47 6 -13 5 -18 -4 -18 -9 0 -9
-3 2 -10 13 -9 13 -11 0 -20 -8 -5 -11 -10 -6 -10 5 0 0 -8 -11 -17 -22 -19
-20 -43 3 -43 8 0 14 -7 14 -15 0 -9 12 -18 29 -21 20 -4 30 -13 34 -30 2 -13
0 -24 -4 -24 -5 0 -9 -9 -9 -21 0 -11 -4 -17 -10 -14 -5 3 -10 21 -10 40 0 37
-10 48 -34 39 -20 -8 -21 -43 -1 -50 8 -4 15 -14 15 -24 0 -10 6 -21 13 -23 7
-4 6 -6 -5 -6 -9 -1 -19 5 -22 12 -3 6 -5 -8 -4 -33 1 -25 5 -50 9 -56 9 -11
1 -54 -10 -54 -3 0 -7 -12 -8 -26 0 -15 -7 -30 -14 -35 -11 -7 -10 -11 4 -21
20 -15 30 -55 16 -63 -18 -12 2 -25 22 -15 15 9 19 7 19 -5 0 -8 -5 -14 -12
-13 -7 2 -13 -9 -13 -24 -1 -16 4 -28 10 -28 5 0 4 -4 -4 -9 -8 -5 -20 -7 -28
-4 -22 9 -15 -24 12 -53 30 -33 34 -74 6 -74 -16 0 -17 -5 -11 -40 9 -48 18
-60 30 -40 8 13 10 13 10 -1 0 -22 -29 -32 -47 -17 -11 9 -16 9 -24 -3 -6 -10
-9 -11 -9 -1 0 25 -20 1 -21 -26 -1 -17 -3 -21 -6 -9 -2 9 -11 17 -20 17 -9 0
-13 -6 -9 -15 4 -12 0 -14 -22 -9 -77 18 -99 17 -105 -6 -3 -12 -10 -19 -16
-15 -6 3 -11 1 -11 -6 0 -6 -8 -1 -18 11 -15 19 -22 21 -38 12 -11 -7 -13 -12
-6 -12 10 0 10 -3 -2 -15 -19 -20 -23 -19 -29 6 -3 12 -10 19 -15 16 -4 -4
-21 1 -37 9 -15 8 -49 14 -74 13 -39 -1 -86 5 -86 11 0 1 -12 4 -27 6 -21 2
-28 -2 -29 -14 -3 -48 -3 -47 -49 -44 -58 3 -70 8 -70 28 0 13 3 14 15 4 12
-10 18 -9 31 4 20 21 11 48 -13 39 -24 -9 -43 -29 -44 -45 0 -7 -4 -3 -9 9 -9
23 -30 32 -30 13 0 -6 -10 -20 -22 -32 -20 -20 -21 -20 -35 -2 -7 10 -11 24
-9 31 3 8 -8 11 -37 9 -67 -4 -125 -24 -132 -46 -8 -24 -27 -16 -23 8 3 18 -1
18 -94 9 -20 -1 -43 -9 -52 -16 -13 -11 -17 -11 -22 4 -10 26 -45 35 -76 19
-17 -9 -28 -10 -28 -4 0 5 4 10 9 10 9 0 7 37 -2 46 -1 2 -17 -10 -34 -27 -23
-21 -41 -29 -65 -28 -18 0 -55 -2 -83 -5 -27 -2 -39 -2 -25 0 41 9 52 26 15
24 -3 -1 -12 6 -20 14 -15 15 -55 11 -55 -6 0 -5 -5 -6 -10 -3 -6 3 -13 -1
-16 -9 -9 -25 -44 -30 -59 -10 -12 16 -16 17 -39 5 -14 -8 -26 -22 -26 -32 0
-10 -5 -21 -12 -25 -8 -5 -9 0 -6 14 6 23 -15 32 -27 12 -3 -5 -18 -10 -32
-10 -22 0 -25 3 -21 30 5 32 -8 38 -42 20 -10 -6 -30 -11 -44 -12 -15 -1 -29
-10 -32 -21 -4 -12 -10 -15 -17 -9 -7 5 -28 8 -47 8 -28 -1 -36 -5 -38 -23 -2
-13 -8 -23 -14 -23 -5 0 -7 7 -4 16 3 9 2 12 -5 9 -5 -4 -16 -1 -24 5 -12 10
-15 10 -15 -1 0 -8 -7 -4 -16 9 -8 12 -22 22 -30 22 -8 0 -14 2 -14 4 0 2 -3
12 -7 22 -5 14 -2 16 14 12 33 -9 45 4 34 35 -6 15 -15 27 -20 27 -16 0 -20
42 -5 57 14 14 18 32 15 66 -2 10 5 17 14 17 9 0 14 4 10 9 -3 5 -1 12 5 16
16 10 12 22 -10 28 -23 6 -27 32 -5 41 8 3 15 13 15 23 0 14 -2 15 -9 4 -7
-10 -11 -5 -16 18 -3 17 -11 31 -16 31 -5 0 -9 7 -9 15 0 8 6 15 14 15 8 0 16
6 19 13 5 17 -3 47 -14 47 -14 0 -30 50 -23 72 3 11 11 17 17 15 8 -3 12 8 13
30 0 19 5 38 10 41 6 4 11 18 12 32 1 18 -7 30 -28 42 -31 18 -41 48 -16 48
18 0 28 32 31 102 1 31 6 61 9 67 4 6 2 20 -4 32 -7 11 -9 23 -6 26 3 4 1 12
-5 19 -6 8 -12 35 -13 61 0 28 -5 47 -12 46 -6 -1 -9 10 -6 28 2 16 8 26 13
23 5 -3 9 15 9 40 0 25 5 46 10 46 6 0 10 12 9 28 l-1 27 -7 -25 -7 -25 -6 30
c-4 16 -2 33 3 36 6 3 3 11 -6 19 -16 14 -21 40 -6 40 14 0 23 32 12 43 -7 7
-7 15 2 26 9 11 9 13 0 8 -6 -4 -15 -2 -18 4 -4 5 2 13 12 15 15 4 20 15 21
45 1 22 7 49 13 61 8 15 8 19 0 14 -6 -4 -11 -2 -11 3 0 6 -9 11 -21 11 -18 0
-19 2 -6 15 17 17 16 100 -2 118 -6 6 -11 24 -11 39 0 18 -5 28 -15 28 -21 0
-8 26 21 39 36 16 44 14 45 -11 l0 -23 9 23 c5 12 15 22 21 22 8 0 8 4 -1 15
-7 8 -19 15 -26 15 -8 0 -14 9 -14 21 0 11 4 18 9 15 5 -3 11 1 15 9 3 8 14
15 23 15 10 0 25 9 33 20 8 11 25 20 38 20 21 0 23 -3 17 -30 -4 -19 -3 -30 4
-31 6 -1 17 -2 24 -3 6 -1 20 6 29 15 20 20 56 15 75 -10 7 -9 13 -11 13 -6 0
6 5 3 10 -5 6 -10 10 -11 10 -2 0 6 9 12 20 12 11 0 29 9 40 20 23 23 45 26
37 6 -8 -20 32 -33 44 -15 5 8 9 21 9 29 1 12 3 11 14 -3 8 -10 29 -20 48 -24
30 -4 36 -2 41 17 3 12 10 19 16 15 6 -3 11 -1 11 4 0 21 20 10 26 -14 4 -16
13 -25 25 -25 11 0 19 -7 19 -17 0 -13 3 -14 12 -5 7 7 20 12 29 12 10 0 25 7
33 16 9 8 16 11 16 6 0 -13 49 -22 56 -10 3 4 10 6 15 2 5 -3 9 -2 8 3 -4 22
3 33 22 33 16 0 19 -4 14 -20 -4 -11 -2 -21 4 -21 6 -1 17 -2 24 -3 6 -1 20 4
30 12 13 12 22 13 42 4 30 -14 56 -6 48 14 -3 9 2 14 15 14 12 0 19 -6 18 -16
0 -9 9 -20 22 -25 13 -5 22 -5 22 1 0 14 34 12 48 -2 9 -9 12 -8 12 6 0 9 5
26 11 38 10 19 12 19 39 -13 24 -29 29 -32 35 -17z m732 22 c-3 -3 -12 -4 -19
-1 -8 3 -5 6 6 6 11 1 17 -2 13 -5z m-1970 -70 c-5 -5 -47 31 -47 40 0 3 7 6
15 6 8 0 15 6 16 13 0 6 5 -3 10 -22 6 -18 8 -35 6 -37z m2158 -264 c3 -5 1
-10 -4 -10 -6 0 -11 5 -11 10 0 6 2 10 4 10 3 0 8 -4 11 -10z m-2175 -54 c0
-9 -8 -12 -26 -8 -19 3 -22 7 -12 13 20 13 38 11 38 -5z m2964 -341 c-4 -8 -7
-15 -9 -15 -2 0 -5 7 -9 15 -3 9 0 15 9 15 9 0 12 -6 9 -15z m563 -581 c-3 -3
-12 -4 -19 -1 -8 3 -5 6 6 6 11 1 17 -2 13 -5z m-597 -94 c0 -5 -5 -10 -11
-10 -5 0 -7 5 -4 10 3 6 8 10 11 10 2 0 4 -4 4 -10z m-173 -345 c-9 -8 -24
-14 -34 -14 -17 1 -17 2 0 6 9 2 17 11 17 18 0 15 23 26 28 14 2 -5 -3 -16
-11 -24z m-47 -315 c0 -5 -4 -10 -10 -10 -5 0 -10 5 -10 10 0 6 5 10 10 10 6
0 10 -4 10 -10z m23 -37 c-7 -2 -21 -2 -30 0 -10 3 -4 5 12 5 17 0 24 -2 18
-5z m17 -29 c0 -2 -7 -4 -15 -4 -8 0 -15 4 -15 10 0 5 7 7 15 4 8 -4 15 -8 15
-10z m57 -90 c-3 -3 -12 -4 -19 -1 -8 3 -5 6 6 6 11 1 17 -2 13 -5z"/>
<path d="M3261 3284 c0 -11 3 -14 6 -6 3 7 2 16 -1 19 -3 4 -6 -2 -5 -13z"/>
<path d="M3288 3163 c7 -3 16 -2 19 1 4 3 -2 6 -13 5 -11 0 -14 -3 -6 -6z"/>
<path d="M3358 3151 c-25 -25 -22 -33 10 -29 19 2 27 9 27 22 0 26 -16 29 -37
7z"/>
<path d="M3378 2933 c7 -3 16 -2 19 1 4 3 -2 6 -13 5 -11 0 -14 -3 -6 -6z"/>
<path d="M3502 2661 c2 -7 7 -12 11 -12 12 1 9 15 -3 20 -7 2 -11 -2 -8 -8z"/>
<path d="M3490 1896 c0 -8 5 -18 10 -21 6 -3 10 3 10 14 0 12 -4 21 -10 21 -5
0 -10 -6 -10 -14z"/>
<path d="M3456 1605 c4 -8 8 -15 10 -15 2 0 4 7 4 15 0 8 -4 15 -10 15 -5 0
-7 -7 -4 -15z"/>
<path d="M3815 1300 c3 -5 8 -10 11 -10 2 0 4 5 4 10 0 6 -5 10 -11 10 -5 0
-7 -4 -4 -10z"/>
<path d="M3617 1031 c-4 -17 -3 -21 5 -13 5 5 8 16 6 23 -3 8 -7 3 -11 -10z"/>
<path d="M670 3240 c0 -5 7 -10 15 -10 8 0 15 5 15 10 0 6 -7 10 -15 10 -8 0
-15 -4 -15 -10z"/>
<path d="M1690 3210 c0 -5 5 -10 11 -10 5 0 7 5 4 10 -3 6 -8 10 -11 10 -2 0
-4 -4 -4 -10z"/>
<path d="M2629 2939 c0 -2 -2 -14 -5 -26 -3 -16 0 -21 10 -17 14 5 16 28 3 40
-4 4 -7 5 -8 3z"/>
<path d="M1065 2861 c5 -9 -40 -51 -55 -51 -6 0 -13 -6 -16 -14 -6 -17 -44 -9
-44 9 0 6 -11 17 -25 23 -32 15 -56 16 -35 2 10 -6 11 -10 3 -10 -19 0 -16
-21 5 -36 14 -11 14 -13 2 -14 -8 0 -26 -9 -40 -20 -14 -11 -29 -20 -34 -20
-6 0 -1 7 10 16 18 15 18 15 -3 9 -16 -5 -23 -2 -23 8 0 17 -37 30 -46 16 -3
-5 4 -9 15 -9 27 0 26 -11 -3 -43 -13 -14 -21 -28 -18 -31 3 -3 -10 -6 -29 -6
-26 0 -30 3 -19 10 13 8 12 10 -3 10 -11 0 -18 -7 -16 -17 1 -10 1 -27 0 -38
-1 -17 -3 -18 -11 -5 -6 10 -10 11 -10 3 0 -7 -7 -13 -15 -13 -19 0 -19 -7 0
-27 22 -21 15 -47 -13 -51 -13 -2 -26 -10 -29 -19 -4 -11 -8 -12 -13 -3 -4 7
-13 9 -19 6 -14 -9 -14 -46 0 -46 7 0 9 -9 5 -24 -3 -13 1 -41 10 -62 11 -26
13 -39 5 -42 -6 -2 -8 -8 -5 -13 3 -6 0 -16 -6 -24 -7 -8 -9 -15 -4 -15 5 0 2
-5 -7 -10 -9 -5 -16 -21 -15 -37 1 -21 6 -28 21 -27 11 1 26 -5 33 -12 10 -11
10 -14 -3 -14 -9 0 -13 -5 -10 -10 4 -6 11 -8 16 -5 5 4 9 -3 9 -14 0 -12 6
-21 14 -21 19 0 29 -16 30 -49 1 -20 7 -27 26 -29 18 -2 21 0 11 6 -8 6 -9 12
-3 16 17 10 26 -16 10 -28 -13 -9 -13 -13 -2 -24 7 -6 22 -12 32 -12 10 0 33
-7 50 -16 34 -16 52 -12 52 12 0 8 5 14 12 14 6 0 8 -3 5 -7 -4 -3 -2 -11 3
-18 7 -8 3 -15 -15 -23 -14 -6 -25 -20 -25 -29 0 -14 2 -15 9 -4 6 9 11 10 15
2 11 -17 56 -14 56 4 0 26 29 29 54 6 15 -15 26 -19 31 -12 3 6 15 11 26 11
10 0 19 6 20 13 0 6 4 2 9 -10 12 -29 44 -30 64 -2 13 20 14 20 19 2 4 -17 5
-17 6 0 1 12 5 15 13 11 16 -10 74 -6 115 7 23 7 30 15 26 26 -4 10 -2 14 4
10 6 -4 19 0 27 9 15 14 16 14 16 0 0 -18 17 -21 40 -6 12 7 10 13 -12 33 -29
27 -22 37 24 37 11 0 22 8 25 20 3 11 16 23 29 26 23 6 27 25 11 52 -5 6 -3
13 2 13 21 3 26 5 46 16 11 7 14 13 8 13 -20 0 -17 109 3 117 13 5 13 7 2 14
-10 7 -10 9 0 9 6 0 12 9 12 20 0 10 6 25 14 32 10 10 11 19 3 35 -11 25 -23
28 -47 13 -9 -6 -17 -5 -22 3 -11 17 -10 75 2 82 6 3 10 15 10 27 0 15 -5 19
-20 15 -11 -3 -23 -1 -26 4 -3 5 -10 7 -15 4 -5 -4 -9 -1 -9 4 0 6 5 11 10 11
6 0 10 5 10 10 0 14 -23 8 -37 -10 -11 -13 -13 -13 -14 0 -1 8 -1 19 0 24 1 5
-5 3 -15 -4 -14 -13 -16 -12 -12 5 2 11 10 19 16 18 7 -2 12 2 12 8 0 6 -7 8
-15 5 -10 -4 -19 3 -25 19 -9 25 -64 43 -95 32 -8 -4 -17 -2 -20 3 -4 6 1 10
9 10 9 0 16 5 16 10 0 6 -4 10 -10 10 -5 0 -10 6 -10 14 0 8 -7 16 -14 19 -10
4 -13 1 -9 -9 3 -10 -2 -14 -19 -14 -13 0 -33 -7 -44 -15 -28 -21 -29 -20 -29
32 0 47 -1 48 -33 50 -17 1 -30 -2 -27 -6z m66 -190 c33 -6 64 -9 69 -6 6 3
10 -1 10 -9 0 -17 53 -49 64 -39 3 4 6 -8 6 -25 0 -29 2 -30 28 -23 32 10 62
-6 62 -32 0 -9 8 -21 18 -27 9 -6 13 -13 7 -16 -36 -16 -38 -21 -28 -73 7 -34
7 -53 0 -60 -7 -7 -3 -14 14 -20 l24 -10 -23 0 c-18 -1 -22 -5 -17 -20 4 -15
0 -18 -20 -18 -14 0 -28 -3 -31 -6 -5 -4 -12 -43 -13 -74 -1 -7 -7 -13 -14
-13 -6 0 -19 -14 -26 -32 -8 -18 -16 -27 -18 -21 -4 12 -43 5 -43 -8 0 -15
-22 -10 -36 9 -8 10 -13 12 -14 5 0 -31 -70 -72 -70 -43 0 20 -55 4 -58 -16
-7 -44 -12 -49 -30 -30 -14 14 -15 18 -3 25 10 6 3 12 -24 21 -27 9 -34 15
-24 21 10 6 8 9 -8 9 -12 0 -33 11 -47 25 -14 14 -30 25 -36 25 -5 0 -10 7
-10 15 0 8 -4 15 -10 15 -5 0 -10 -9 -10 -20 0 -11 -4 -20 -9 -20 -7 0 -18 34
-23 78 -1 6 -7 12 -14 12 -19 0 -59 25 -62 39 -1 7 2 10 8 6 6 -3 10 4 10 17
0 13 -3 18 -8 12 -5 -9 -11 -8 -20 2 -11 12 -10 14 5 15 11 0 13 3 6 6 -7 2
-13 20 -13 39 0 26 3 32 15 28 11 -4 15 1 16 17 0 13 3 18 6 12 2 -7 9 -13 14
-13 12 0 -2 33 -18 43 -7 4 -13 13 -13 18 0 6 6 7 13 3 9 -6 9 -4 1 7 -17 22
-24 49 -14 49 6 0 10 -10 10 -22 1 -22 1 -22 14 -5 11 14 15 15 20 5 3 -7 4
-3 2 10 -4 20 4 27 27 23 4 0 7 5 7 13 0 8 11 17 25 20 14 4 25 13 25 20 0 8
7 17 16 20 12 4 15 2 10 -9 -8 -22 40 -20 53 3 6 9 11 13 11 7 0 -5 5 -3 10 5
8 12 10 12 10 -5 0 -17 2 -17 10 -5 9 13 10 13 10 0 0 -13 1 -13 10 0 9 13 10
13 10 0 0 -8 10 0 22 18 15 25 23 30 29 20 7 -10 9 -8 10 7 1 14 3 15 6 4 2
-9 25 -20 64 -28z m174 -61 c3 -5 1 -10 -4 -10 -6 0 -11 5 -11 10 0 6 2 10 4
10 3 0 8 -4 11 -10z m-615 -215 c0 -8 -7 -15 -15 -15 -16 0 -20 12 -8 23 11
12 23 8 23 -8z m735 -64 c3 -5 1 -12 -5 -16 -5 -3 -10 1 -10 9 0 18 6 21 15 7z
m-701 -106 c-4 -8 -8 -15 -10 -15 -2 0 -4 7 -4 15 0 8 4 15 10 15 5 0 7 -7 4
-15z m586 -59 c0 -11 -19 -15 -25 -6 -3 5 1 10 9 10 9 0 16 -2 16 -4z"/>
<path d="M1031 2556 c-5 -6 -12 -28 -15 -50 -6 -33 -5 -38 8 -33 9 4 16 2 16
-3 0 -6 -9 -10 -19 -10 -22 0 -31 -20 -29 -68 1 -21 7 -36 17 -40 34 -12 40
-38 11 -47 -25 -8 -15 -29 11 -22 12 3 19 0 19 -9 0 -20 20 -17 21 4 0 12 3
10 10 -8 l10 -25 18 24 c14 18 29 24 76 26 34 2 61 9 66 17 5 7 4 14 -2 16 -6
3 -6 9 2 18 9 11 8 14 -5 14 -9 0 -16 4 -16 9 0 20 13 41 24 41 7 0 12 11 12
25 0 14 -3 25 -6 25 -4 0 -5 15 -3 33 3 26 1 28 -6 12 -5 -11 -10 -14 -10 -7
-1 9 -6 10 -20 2 -16 -8 -20 -6 -23 12 -2 13 -12 24 -26 28 -13 3 -23 10 -22
15 1 6 -6 11 -14 13 -10 2 -14 -2 -10 -11 3 -10 -4 -14 -26 -15 -18 0 -30 4
-30 12 0 15 -27 17 -39 2z"/>
<path d="M968 2513 c7 -3 16 -2 19 1 4 3 -2 6 -13 5 -11 0 -14 -3 -6 -6z"/>
<path d="M770 2458 c0 -12 3 -18 7 -14 11 10 12 36 2 36 -5 0 -9 -10 -9 -22z"/>
<path d="M1320 2426 c0 -8 -6 -17 -12 -19 -8 -3 -6 -6 5 -6 11 -1 17 6 17 19
0 11 -2 20 -5 20 -3 0 -5 -6 -5 -14z"/>
<path d="M935 2360 c-3 -6 1 -13 9 -16 9 -3 13 -10 10 -15 -3 -5 2 -9 10 -9
25 0 25 14 1 33 -15 10 -26 13 -30 7z"/>
<path d="M1991 2851 c-6 -4 -11 -16 -10 -27 4 -37 -1 -54 -15 -54 -8 0 -17 7
-20 16 -4 10 -14 14 -26 11 -10 -3 -21 0 -24 7 -2 6 -5 4 -5 -4 -1 -9 3 -20 9
-26 6 -6 0 -16 -20 -27 -22 -13 -30 -15 -30 -5 0 7 -7 3 -15 -9 -9 -12 -22
-20 -29 -17 -15 6 -86 -57 -86 -75 0 -6 -15 -11 -32 -11 -44 0 -60 -11 -42
-28 8 -7 14 -10 14 -5 0 9 29 -29 30 -39 0 -4 -7 -4 -17 -1 -10 4 -14 2 -10
-4 4 -6 0 -19 -9 -27 -14 -14 -14 -16 0 -16 9 0 13 -6 10 -15 -5 -13 -8 -13
-21 1 -14 13 -17 13 -28 -3 -15 -20 -11 -33 9 -33 16 0 14 -39 -2 -49 -8 -4
-10 -29 -7 -71 2 -36 5 -69 5 -73 0 -5 5 -5 10 -2 18 11 37 -19 33 -52 -4 -25
-1 -32 16 -38 12 -3 21 -12 21 -18 0 -9 2 -9 8 0 6 9 11 7 20 -7 9 -15 9 -20
1 -20 -7 0 0 -9 14 -20 14 -11 29 -30 32 -41 6 -16 13 -20 36 -17 21 3 29 0
30 -11 0 -11 2 -12 6 -3 7 17 23 15 23 -3 0 -8 7 -15 15 -15 8 0 15 -7 15 -15
0 -9 6 -12 15 -9 9 4 15 0 15 -7 0 -11 2 -11 8 -2 8 13 52 6 52 -8 0 -5 3 -8
8 -8 4 1 23 1 42 0 27 -1 31 -4 20 -11 -12 -8 -11 -10 6 -10 12 0 26 10 32 23
6 12 11 16 11 10 1 -7 6 -13 12 -13 5 0 7 5 3 12 -5 8 0 9 15 5 13 -3 20 -3
17 0 -5 5 18 33 27 33 3 0 4 -13 3 -30 -2 -34 9 -40 19 -10 6 20 55 30 55 11
0 -5 9 -11 21 -14 18 -5 20 -2 16 28 -3 25 0 35 11 40 9 3 18 1 20 -4 8 -25
20 -8 16 23 -3 28 1 38 18 51 14 9 24 11 26 5 2 -5 10 -10 18 -10 8 0 14 -6
15 -12 0 -7 4 -4 8 7 5 13 17 19 37 20 18 0 29 5 30 15 3 43 5 50 15 50 12 0
38 29 39 43 0 4 -9 7 -21 7 -15 0 -19 -5 -15 -15 3 -9 0 -15 -9 -15 -8 0 -15
-9 -15 -20 0 -15 -6 -19 -30 -17 -16 1 -30 3 -30 5 0 2 16 18 35 36 19 19 35
38 35 44 0 11 38 28 53 24 5 -1 7 12 5 30 -2 20 -8 32 -15 30 -7 -1 -13 2 -13
8 0 5 9 10 21 10 11 0 17 4 14 10 -4 6 -15 8 -24 5 -34 -10 -40 16 -20 80 20
64 17 115 -7 115 -8 0 -14 5 -14 11 0 6 5 9 12 7 13 -5 48 26 48 42 0 6 -13 9
-29 8 -18 -1 -27 -7 -24 -14 2 -7 0 -15 -6 -19 -7 -4 -14 6 -17 24 -5 21 -12
31 -25 31 -15 0 -40 29 -43 50 -1 3 -14 5 -31 5 -38 1 -75 13 -75 25 0 5 6 7
14 4 7 -3 16 2 19 10 4 9 18 16 31 16 24 0 25 2 14 25 -6 14 -14 25 -18 25 -4
0 -13 -11 -20 -25 -13 -25 -33 -31 -64 -19 -9 3 -16 12 -16 19 0 7 -7 15 -15
19 -9 3 -15 0 -15 -8 0 -20 -45 -8 -75 20 -14 13 -28 24 -29 24 -2 0 -7 -16
-10 -35 -8 -43 -26 -46 -26 -4 0 31 -1 31 -35 26 -19 -3 -35 -2 -35 3 0 12
-25 19 -39 11z m-41 -173 c16 -11 27 -25 24 -30 -3 -4 2 -8 10 -8 9 0 16 7 16
15 0 32 95 50 106 20 9 -23 24 -18 24 8 1 18 4 15 16 -13 11 -25 17 -31 23
-21 7 10 9 9 14 -3 5 -12 12 -14 29 -8 27 10 58 5 58 -9 0 -5 5 -9 11 -9 5 0
7 4 4 10 -3 6 4 9 19 8 13 -1 22 -6 20 -10 -3 -4 2 -8 10 -8 9 0 16 -9 16 -20
0 -11 5 -20 11 -20 5 0 7 6 3 13 -5 8 -2 8 9 -2 9 -7 17 -20 17 -28 0 -8 5
-11 10 -8 9 5 15 -16 11 -38 -1 -5 8 -11 19 -14 16 -4 19 -11 13 -32 -3 -14
-11 -29 -17 -33 -6 -4 0 -11 14 -17 l25 -10 -25 -1 c-24 -1 -24 -1 -6 -15 17
-13 15 -19 -5 -17 -4 1 -14 -29 -23 -66 -9 -37 -21 -68 -26 -70 -6 -2 -10 -18
-10 -35 0 -27 -4 -32 -25 -32 -14 0 -25 6 -25 13 0 6 -7 12 -15 12 -8 0 -15
-4 -15 -9 0 -5 -16 -12 -35 -15 -19 -4 -35 -12 -35 -18 0 -5 -7 -7 -16 -4 -16
6 -47 -18 -57 -47 -6 -15 -14 -17 -49 -12 -24 4 -44 11 -46 16 -5 12 -49 12
-57 -1 -12 -19 -33 -10 -48 23 -9 17 -18 31 -21 30 -16 -7 -46 -2 -41 7 4 6
10 8 14 5 5 -2 6 7 3 20 -2 14 -11 25 -19 25 -8 0 -11 -5 -8 -10 3 -6 0 -13
-9 -16 -18 -7 -59 14 -51 26 3 4 -11 14 -30 20 -34 11 -46 32 -24 46 6 3 9 24
7 45 -2 22 0 39 4 39 5 0 8 5 8 10 0 6 -8 10 -17 10 -15 0 -15 2 2 14 18 13
18 14 -3 20 -32 11 -27 41 9 56 24 10 29 17 25 34 -4 12 -9 30 -11 41 -8 29
32 53 49 30 15 -20 39 -11 56 21 7 13 17 24 22 24 4 0 6 16 3 35 -5 41 -3 42
35 13z m-80 -48 c0 -5 -5 -10 -11 -10 -5 0 -7 5 -4 10 3 6 8 10 11 10 2 0 4
-4 4 -10z m-130 -246 c0 -8 -4 -12 -10 -9 -5 3 -10 10 -10 16 0 5 5 9 10 9 6
0 10 -7 10 -16z m512 -249 c4 -19 1 -25 -13 -25 -11 0 -19 5 -19 10 0 6 4 10
10 10 5 0 7 7 4 15 -4 8 -2 15 4 15 5 0 12 -11 14 -25z m168 0 c0 -8 -4 -15
-10 -15 -5 0 -7 7 -4 15 4 8 8 15 10 15 2 0 4 -7 4 -15z"/>
<path d="M2170 2570 c11 -7 5 -10 -25 -10 -22 0 -35 -4 -30 -8 21 -15 14 -33
-16 -39 -38 -7 -48 -29 -23 -49 11 -9 13 -12 6 -9 -8 4 -19 -1 -27 -11 -11
-16 -15 -17 -31 -4 -11 8 -16 10 -12 6 4 -5 0 -15 -10 -22 -16 -13 -16 -13 2
-14 10 0 32 -14 49 -31 21 -22 32 -28 37 -19 6 10 9 9 12 -1 2 -7 -4 -21 -14
-31 -10 -10 -18 -26 -18 -35 0 -15 2 -16 10 -3 9 13 10 13 11 0 0 -8 5 -4 9
10 7 21 8 22 9 5 1 -14 4 -16 10 -7 6 10 14 9 39 -5 17 -10 33 -25 36 -33 3
-11 4 -11 5 3 1 18 17 24 23 8 2 -5 12 -3 22 5 11 8 14 14 8 14 -7 0 -12 5
-12 10 0 6 12 10 28 10 29 1 55 17 59 38 2 7 -7 12 -22 12 -14 0 -25 5 -25 10
0 6 7 10 16 10 10 0 14 5 10 16 -3 8 -2 12 4 9 6 -4 10 7 10 26 0 29 -2 31
-30 27 -17 -3 -33 -1 -36 4 -3 4 0 8 5 8 6 0 11 6 11 14 0 8 8 17 18 19 16 4
16 5 0 6 -10 0 -18 6 -18 13 0 9 -3 9 -12 0 -17 -17 -43 5 -27 24 8 10 8 14 0
15 -26 3 -30 4 -37 12 -4 4 -14 7 -23 7 -14 0 -14 -2 -1 -10z m18 -48 c2 -15
-2 -22 -12 -22 -9 0 -16 3 -17 8 0 4 -2 15 -4 25 -2 13 2 17 13 15 9 -2 18
-13 20 -26z"/>
<path d="M2036 2295 c-3 -9 0 -15 9 -15 9 0 12 6 9 15 -4 8 -7 15 -9 15 -2 0
-5 -7 -9 -15z"/>
<path d="M1858 2803 c7 -3 16 -2 19 1 4 3 -2 6 -13 5 -11 0 -14 -3 -6 -6z"/>
<path d="M1365 2739 c-10 -15 3 -25 16 -12 7 7 7 13 1 17 -6 3 -14 1 -17 -5z"/>
<path d="M2590 2519 c0 -5 5 -7 10 -4 6 3 10 8 10 11 0 2 -4 4 -10 4 -5 0 -10
-5 -10 -11z"/>
<path d="M2570 2473 c0 -6 -9 -13 -20 -16 -11 -3 -20 -10 -20 -17 0 -7 8 -9
23 -5 33 11 43 23 29 37 -8 8 -12 8 -12 1z"/>
<path d="M2580 2300 c-13 -8 -12 -10 3 -10 9 0 17 5 17 10 0 12 -1 12 -20 0z"/>
<path d="M1368 2103 c6 -2 18 -2 25 0 6 3 1 5 -13 5 -14 0 -19 -2 -12 -5z"/>
<path d="M2320 2010 c0 -5 7 -10 15 -10 8 0 15 5 15 10 0 6 -7 10 -15 10 -8 0
-15 -4 -15 -10z"/>
<path d="M1865 1979 c-4 -6 -5 -12 -2 -15 2 -3 7 2 10 11 7 17 1 20 -8 4z"/>
<path d="M2076 1925 c-3 -8 -1 -15 4 -15 6 0 10 7 10 15 0 8 -2 15 -4 15 -2 0
-6 -7 -10 -15z"/>
<path d="M2370 1810 c0 -6 7 -10 15 -10 8 0 15 2 15 4 0 2 -7 6 -15 10 -8 3
-15 1 -15 -4z"/>
<path d="M1657 1789 c-9 -6 -25 -12 -35 -14 -54 -10 -101 -27 -104 -37 -3 -7
-15 -3 -35 11 -23 17 -37 21 -54 15 -13 -4 -30 -7 -36 -6 -7 2 -10 -3 -7 -12
8 -21 -17 -32 -28 -12 -10 17 -58 23 -58 6 0 -5 -5 -10 -11 -10 -5 0 -8 4 -5
9 3 5 -11 16 -32 24 -32 13 -39 14 -48 1 -6 -8 -23 -14 -38 -14 -15 0 -25 -4
-22 -9 9 -14 -59 -23 -88 -11 -15 5 -24 14 -21 20 4 6 -5 10 -19 10 -14 0 -26
-4 -26 -9 0 -5 -11 -4 -24 2 -26 13 -26 30 1 20 11 -4 14 -3 9 5 -9 15 -46 16
-46 1 0 -7 -14 -8 -40 -4 -26 4 -40 3 -41 -4 -1 -6 -2 -17 -3 -23 0 -7 -10
-14 -21 -17 -17 -3 -18 -1 -6 13 12 14 10 16 -12 16 -14 0 -27 -6 -30 -12 -3
-10 -7 -10 -20 1 -14 11 -17 11 -17 1 0 -8 -3 -10 -7 -7 -3 4 -13 1 -22 -6
-21 -18 -54 -30 -46 -17 3 6 -1 10 -9 10 -8 0 -18 -10 -21 -21 -6 -17 -9 -19
-16 -8 -7 11 -9 10 -9 -3 0 -11 7 -18 18 -18 14 0 15 -2 2 -10 -13 -8 -12 -10
3 -10 9 0 17 -5 17 -11 0 -6 -6 -9 -12 -7 -21 7 -39 -19 -33 -45 4 -16 1 -30
-10 -41 -15 -15 -14 -16 19 -16 21 0 36 -5 36 -12 0 -6 7 -19 15 -28 14 -15
13 -19 -10 -44 -26 -28 -24 -55 4 -57 10 0 11 -2 4 -6 -7 -2 -13 -9 -13 -14 0
-6 5 -7 10 -4 6 3 10 -3 10 -14 0 -13 -7 -21 -17 -21 -14 0 -15 -2 -4 -9 9 -6
11 -20 6 -52 -4 -32 -3 -40 4 -29 9 12 11 11 11 -8 0 -12 -7 -25 -15 -28 -8
-4 -15 -18 -15 -31 0 -24 20 -48 79 -96 23 -18 46 -23 36 -7 -10 16 12 12 29
-5 17 -17 77 -12 107 9 16 11 19 16 19 36 0 6 7 10 16 10 9 0 13 5 9 13 -4 6
1 3 9 -7 20 -25 20 -33 -1 -39 -17 -4 -17 -5 0 -6 10 0 16 -5 12 -10 -3 -5 -1
-12 5 -16 5 -3 10 1 10 9 0 15 23 21 59 17 7 -2 10 2 6 8 -3 6 -1 11 4 11 6 0
11 -4 11 -10 0 -5 4 -10 10 -10 5 0 9 3 9 8 -5 28 3 34 16 12 8 -14 14 -19 15
-11 0 11 3 11 15 1 26 -21 80 -14 109 14 21 22 28 25 40 14 8 -7 10 -14 5 -16
-5 -2 -9 -11 -9 -19 0 -9 3 -13 7 -10 3 4 11 3 18 -3 13 -11 57 -2 49 11 -3 5
2 9 10 9 9 0 16 -6 16 -13 0 -23 39 -34 76 -23 19 6 34 16 34 23 0 6 10 14 23
16 20 4 19 4 -4 6 -16 0 -29 -5 -33 -15 -5 -13 -9 -14 -21 -4 -8 7 -24 10 -35
7 -11 -3 -20 0 -20 6 0 8 23 13 62 14 44 1 64 6 70 17 11 19 42 22 36 4 -7
-21 19 -38 49 -33 66 11 99 16 111 17 6 1 12 10 12 21 0 28 24 15 28 -15 2
-19 -2 -28 -15 -31 -17 -4 -17 -5 0 -6 9 0 17 -5 17 -10 0 -11 23 -8 65 10 17
7 33 12 38 11 4 -1 7 2 7 8 0 5 -6 10 -12 10 -9 0 -9 3 1 9 9 6 25 2 47 -12
27 -18 31 -25 22 -41 -8 -15 -12 -16 -19 -5 -6 10 -9 7 -9 -12 0 -23 3 -26 25
-21 20 3 25 10 25 33 0 25 4 29 28 28 23 -2 24 -2 5 -6 -26 -5 -30 -18 -8 -27
8 -3 15 -1 15 4 0 5 6 7 14 4 7 -3 16 2 20 11 3 10 13 15 20 12 8 -3 25 2 38
13 13 10 32 19 43 20 35 4 56 0 51 -9 -3 -5 4 -11 15 -14 15 -4 19 -2 15 9 -5
12 1 15 27 13 17 -2 37 -6 42 -9 6 -4 21 -7 34 -8 13 0 28 -7 33 -14 5 -8 11
-9 16 -3 12 16 52 18 52 2 0 -18 44 -11 61 9 6 8 8 14 5 14 -4 0 0 7 8 16 9 8
20 13 25 9 21 -13 19 14 -4 41 -26 31 -24 48 6 39 22 -7 37 18 22 38 -13 16
-25 49 -15 44 6 -4 34 18 32 25 -1 2 2 11 6 21 4 10 2 23 -5 30 -6 6 -11 26
-11 44 0 26 5 34 25 39 30 7 33 30 5 37 -11 3 -20 2 -20 -3 0 -4 -11 -5 -24
-3 -15 3 -23 10 -19 18 2 8 10 12 16 9 28 -9 39 13 33 62 -3 27 -7 60 -7 73
-1 25 -26 58 -36 48 -8 -9 -29 15 -38 42 -5 16 -10 20 -15 11 -5 -9 -9 -9 -14
-1 -4 6 -13 11 -19 11 -7 0 -6 -4 3 -10 13 -9 13 -10 0 -11 -8 -1 -27 -3 -42
-5 -16 -1 -28 1 -28 6 0 4 -27 7 -60 7 -33 -1 -60 -5 -60 -9 0 -15 -39 -8 -49
10 -10 16 -12 16 -26 -2 -8 -11 -15 -15 -15 -10 0 5 -14 18 -31 28 -40 24 -56
10 -40 -34 8 -26 8 -30 -2 -22 -12 10 -18 12 -37 12 -5 0 -10 8 -10 18 0 20
-29 64 -30 45 0 -7 -7 -10 -15 -7 -8 4 -15 1 -15 -6 0 -10 -16 -11 -63 -7 -69
6 -81 3 -91 -30 -10 -33 -25 -28 -24 7 1 17 -2 33 -5 37 -4 3 -7 -1 -7 -10 0
-8 -9 -19 -20 -22 -11 -3 -20 -11 -20 -16 0 -5 -7 -9 -15 -9 -8 0 -15 6 -15
13 0 8 -3 8 -9 -2 -7 -11 -10 -5 -13 21 -3 32 -5 35 -21 27z m313 -39 c0 -5
-7 -7 -15 -4 -8 4 -15 8 -15 10 0 2 7 4 15 4 8 0 15 -4 15 -10z m-1243 -52
c-3 -8 -6 -5 -6 6 -1 11 2 17 5 13 3 -3 4 -12 1 -19z m905 -60 c-9 -9 -15 -9
-24 0 -9 9 -7 12 12 12 19 0 21 -3 12 -12z m668 -9 c0 -5 9 -23 21 -41 12 -18
19 -25 15 -15 -5 16 3 21 21 15 4 -2 7 -14 6 -28 -1 -15 0 -18 3 -7 3 9 10 17
15 17 12 0 12 -47 -1 -55 -6 -4 -8 -10 -5 -14 2 -5 -7 -6 -20 -3 -19 3 -25 0
-26 -14 0 -11 -3 -14 -5 -7 -3 7 -11 10 -19 7 -7 -3 -16 -1 -20 5 -9 15 -75
14 -76 -1 0 -10 -2 -10 -6 0 -2 6 -9 12 -14 12 -6 0 -8 -4 -5 -9 7 -11 -17
-21 -50 -21 -13 0 -24 -4 -24 -10 0 -5 -7 -10 -15 -10 -21 0 -19 12 5 33 22
19 25 33 10 42 -5 3 -10 15 -10 26 0 10 -7 19 -15 19 -8 0 -15 5 -15 10 0 6
14 10 30 10 19 0 29 5 28 13 -2 7 10 13 32 15 26 2 31 0 20 -7 -25 -17 -4 -23
40 -11 27 7 44 18 47 30 5 18 33 17 33 -1z m-1013 -22 c5 -20 15 -32 26 -32 9
0 17 -4 18 -10 0 -5 5 -16 11 -23 6 -7 9 -13 7 -15 -42 -24 -47 -25 -58 -14
-7 7 -12 8 -11 2 5 -22 -1 -35 -15 -35 -8 0 -14 6 -12 13 1 6 -4 12 -10 11 -7
-1 -24 -2 -38 -2 -14 -1 -25 -7 -25 -13 0 -12 -25 -39 -36 -39 -4 0 -5 3 -1 6
3 4 0 13 -8 21 -12 11 -12 17 -2 28 10 11 13 9 19 -9 l6 -21 1 22 c1 13 -7 27
-18 33 -26 14 -31 13 -31 -6 0 -14 -2 -14 -15 0 -8 8 -15 19 -15 25 0 19 34
46 53 43 10 -2 26 -1 35 3 14 5 14 7 2 15 -13 8 -13 10 2 10 9 0 18 -5 20 -12
3 -8 9 -8 24 0 10 6 15 12 9 12 -16 1 13 16 33 17 14 1 22 -8 29 -30z m231 4
c-13 -11 -19 -24 -15 -34 9 -25 26 -21 37 8 10 27 14 26 90 -12 l25 -13 -25
-1 -25 0 24 -10 c18 -7 21 -12 12 -23 -6 -7 -8 -15 -6 -18 3 -3 -6 -3 -20 -1
-22 5 -25 2 -25 -21 0 -21 -5 -26 -25 -26 -17 0 -25 6 -26 18 0 12 -2 13 -6 3
-4 -11 -8 -9 -17 6 -8 15 -16 18 -31 12 -11 -4 -14 -8 -7 -8 6 -1 12 -6 12
-11 0 -6 -13 -4 -30 5 -25 13 -29 20 -27 48 2 17 0 37 -5 43 -13 17 2 45 21
40 9 -3 27 1 40 8 35 19 57 9 29 -13z m291 4 c6 3 17 0 25 -8 17 -16 126 -23
126 -8 0 6 9 11 21 11 l20 0 -21 -30 c-12 -16 -17 -30 -12 -30 6 0 13 6 16 13
3 9 8 8 18 -4 7 -9 20 -18 28 -22 12 -4 11 -6 -3 -6 -10 -1 -16 -5 -13 -10 12
-19 -26 -33 -93 -35 -44 -2 -72 1 -75 8 -2 6 -5 4 -5 -4 -1 -21 -50 -25 -57
-5 -4 8 -14 15 -23 16 -10 0 -11 2 -3 6 6 2 10 9 6 14 -3 5 -1 9 5 9 5 0 7 24
5 58 -4 51 -3 55 10 38 8 -10 20 -15 25 -11z m-919 1 c0 -9 -7 -12 -20 -9 -11
3 -17 9 -14 14 8 14 34 10 34 -5z m1610 -1 c0 -9 -6 -12 -15 -9 -8 4 -12 10
-9 15 8 14 24 10 24 -6z m-1522 -31 c-1 -21 4 -39 13 -45 10 -6 7 -9 -12 -9
-37 0 -42 -23 -13 -55 25 -27 31 -45 14 -45 -5 0 -10 4 -10 10 0 15 -43 51
-56 46 -7 -3 -15 5 -19 17 -6 22 -6 22 -17 -3 -7 -16 -12 -20 -15 -12 -3 9
-13 2 -26 -20 -18 -30 -21 -31 -27 -13 -4 11 -3 23 3 27 8 5 7 15 -2 32 -11
21 -12 28 -1 41 8 10 9 15 1 15 -6 0 -11 10 -11 22 0 20 1 21 13 4 10 -14 21
-16 48 -11 93 17 98 17 92 -7 -4 -19 -3 -20 6 -8 6 8 11 23 11 33 0 9 2 17 5
17 2 0 4 -16 3 -36z m1451 -16 c-17 -31 -20 -18 -10 42 1 3 5 -2 10 -9 6 -9 6
-22 0 -33z m-1659 0 c0 -13 -23 -5 -28 10 -2 7 2 10 12 6 9 -3 16 -11 16 -16z
m1770 13 c0 -17 -18 -21 -24 -6 -3 9 0 15 9 15 8 0 15 -4 15 -9z m-1747 -37
c-2 -7 -12 -10 -21 -7 -10 4 -12 8 -4 11 7 2 12 11 12 20 0 14 2 14 9 3 5 -8
7 -20 4 -27z m1461 -63 c3 -5 -1 -12 -10 -15 -22 -9 -24 -8 -24 9 0 16 25 21
34 6z m265 -13 c0 -22 -1 -22 -8 -3 -8 19 -9 18 -13 -5 -5 -25 -5 -25 -7 3 -1
18 4 27 14 27 9 0 15 -9 14 -22z m-305 -13 c3 -8 1 -15 -4 -15 -6 0 -10 7 -10
15 0 8 2 15 4 15 2 0 6 -7 10 -15z m-392 -82 c8 -9 7 -13 -3 -13 -11 0 -11 -2
1 -10 25 -16 40 -11 40 13 0 18 2 19 10 7 9 -13 10 -13 11 0 0 9 4 7 11 -7 12
-25 63 -34 55 -10 -2 6 -14 11 -25 9 -36 -5 -23 33 13 40 14 2 21 -3 23 -19 2
-15 10 -23 23 -23 10 0 19 -7 19 -15 0 -9 7 -26 15 -39 11 -17 12 -23 3 -23
-7 0 -29 -3 -48 -7 -26 -5 -31 -4 -20 3 13 9 13 11 -2 11 -10 0 -18 -6 -18
-12 0 -9 -4 -8 -10 2 -8 13 -10 12 -10 -3 0 -14 -6 -16 -38 -11 -28 4 -41 2
-51 -10 -11 -13 -16 -14 -29 -4 -8 7 -20 13 -26 14 -6 0 -16 2 -22 2 -6 1 -11
20 -12 43 -1 22 -4 45 -8 50 -3 5 3 12 13 16 10 4 29 18 43 32 l25 26 3 -25
c2 -14 9 -31 14 -37z m518 32 c5 3 12 -11 16 -31 6 -33 9 -36 35 -32 16 3 30
0 32 -5 4 -13 -47 -67 -65 -68 -7 0 -4 -4 7 -9 18 -7 18 -8 -8 -15 -19 -5 -33
-3 -45 8 -9 9 -29 19 -44 22 -16 4 -28 14 -29 24 0 11 -3 9 -9 -6 -11 -27 -27
-30 -32 -6 -3 15 -4 15 -20 -1 -10 -10 -18 -12 -18 -6 0 6 -5 8 -11 5 -6 -4
-8 -13 -5 -21 11 -30 -16 -12 -29 19 -10 23 -10 36 -2 45 8 10 7 12 -4 10 -8
-2 -14 3 -13 10 1 6 2 20 3 30 0 11 10 18 27 20 15 1 23 -2 19 -8 -4 -6 -10
-8 -15 -5 -5 3 -11 1 -14 -4 -3 -5 25 -13 62 -19 51 -8 69 -7 77 2 16 20 28
19 37 -3 5 -14 13 -19 23 -14 13 4 15 14 11 42 -3 20 -3 30 0 23 3 -6 10 -10
14 -7z m-861 -32 c0 -25 -1 -26 -9 -8 -12 27 -12 35 0 35 6 0 10 -12 9 -27z
m-533 -9 c-3 -9 2 -14 14 -14 11 0 20 -4 20 -10 0 -5 -6 -10 -14 -10 -8 0 -17
-15 -20 -33 -3 -19 -12 -34 -19 -35 -6 -1 -30 -3 -52 -4 -22 -2 -46 -7 -52
-11 -9 -5 -13 -3 -13 7 0 8 8 17 18 19 14 4 14 6 -5 12 -13 4 -23 11 -23 16 0
5 -7 9 -15 9 -8 0 -15 -4 -15 -10 0 -5 -4 -10 -8 -10 -5 0 -9 8 -9 18 0 20 26
42 43 35 7 -2 15 0 18 6 4 6 18 6 39 0 40 -11 37 -12 37 6 0 17 29 35 47 28 8
-3 12 -12 9 -19z m634 4 c0 -8 3 -9 8 -3 12 17 58 12 53 -5 -2 -8 -4 -21 -4
-27 0 -7 -4 -13 -9 -13 -4 0 -8 -5 -8 -11 0 -6 6 -9 14 -6 20 8 27 -15 10 -31
-9 -9 -14 -9 -14 -2 0 7 -6 10 -12 7 -7 -2 -12 -14 -10 -25 2 -12 -1 -22 -7
-22 -5 0 -11 -8 -14 -17 -3 -15 -6 -13 -17 10 -10 20 -21 27 -42 27 -15 0 -28
-4 -28 -8 0 -9 -22 -8 -58 3 l-23 8 20 19 c12 10 24 30 27 43 3 14 10 25 15
25 5 0 9 7 9 16 0 11 7 14 30 10 17 -2 30 0 30 5 0 5 7 9 15 9 8 0 15 -6 15
-12z m-316 -4 c9 -3 16 -12 16 -20 0 -8 9 -14 19 -14 14 0 18 -5 14 -19 -3
-13 -20 -23 -48 -30 -24 -6 -50 -17 -57 -25 -17 -16 -53 -2 -42 16 5 7 2 9 -7
6 -8 -3 -22 -9 -31 -13 -10 -4 -18 -3 -18 3 0 6 -7 18 -16 26 -8 9 -11 16 -5
16 6 0 11 9 11 20 0 10 8 24 18 29 19 11 121 15 146 5z m76 -1 c-8 -3 -18 -11
-22 -17 -5 -7 -8 -4 -8 7 0 11 7 17 23 16 15 0 17 -2 7 -6z m750 -52 c0 -12
-20 -25 -27 -18 -7 7 6 27 18 27 5 0 9 -4 9 -9z m-1100 -11 c0 -5 -2 -10 -4
-10 -3 0 -8 5 -11 10 -3 6 -1 10 4 10 6 0 11 -4 11 -10z m-195 -39 c3 -6 -4
-8 -16 -6 -30 6 -37 15 -11 15 11 0 23 -4 27 -9z m1195 -21 c0 -5 -4 -10 -10
-10 -5 0 -10 5 -10 10 0 6 5 10 10 10 6 0 10 -4 10 -10z m-100 -15 c0 -8 -7
-15 -15 -15 -26 0 -18 20 13 29 1 1 2 -6 2 -14z m-1215 -55 c3 -5 1 -10 -4
-10 -6 0 -11 5 -11 10 0 6 2 10 4 10 3 0 8 -4 11 -10z m25 -35 c0 -8 -4 -15
-8 -15 -5 0 -9 7 -9 15 0 8 4 15 9 15 4 0 8 -7 8 -15z m100 -10 c0 -8 -7 -15
-15 -15 -16 0 -20 12 -8 23 11 12 23 8 23 -8z"/>
<path d="M1280 1540 c0 -5 5 -10 11 -10 5 0 7 5 4 10 -3 6 -8 10 -11 10 -2 0
-4 -4 -4 -10z"/>
<path d="M1481 1544 c0 -11 3 -14 6 -6 3 7 2 16 -1 19 -3 4 -6 -2 -5 -13z"/>
<path d="M1751 1366 c-9 -11 -9 -15 1 -19 10 -4 10 -6 1 -6 -18 -1 -16 -21 2
-21 8 0 15 -4 15 -10 0 -5 7 -10 15 -10 9 0 12 6 9 15 -4 8 -2 15 4 15 5 0 7
12 4 28 -3 15 -7 21 -10 14 -3 -9 -8 -10 -17 -2 -9 7 -16 6 -24 -4z"/>
<path d="M926 1305 c-3 -8 -1 -15 4 -15 6 0 10 7 10 15 0 8 -2 15 -4 15 -2 0
-6 -7 -10 -15z"/>
<path d="M1751 1784 c0 -11 3 -14 6 -6 3 7 2 16 -1 19 -3 4 -6 -2 -5 -13z"/>
<path d="M798 1783 c7 -3 16 -2 19 1 4 3 -2 6 -13 5 -11 0 -14 -3 -6 -6z"/>
<path d="M2378 1783 c6 -2 18 -2 25 0 6 3 1 5 -13 5 -14 0 -19 -2 -12 -5z"/>
<path d="M610 1383 c0 -22 2 -25 10 -13 13 20 13 40 0 40 -5 0 -10 -12 -10
-27z"/>
<path d="M541 1201 c-10 -6 -10 -10 -1 -16 13 -8 24 -1 19 14 -3 6 -10 7 -18
2z"/>
<path d="M2580 1145 c0 -9 9 -15 21 -15 18 0 19 2 9 15 -7 8 -16 15 -21 15 -5
0 -9 -7 -9 -15z"/>
<path d="M2355 1070 c-3 -5 3 -14 14 -19 14 -8 20 -7 24 3 6 15 -30 30 -38 16z"/>
<path d="M1550 1051 c0 -4 11 -6 25 -3 14 2 25 6 25 8 0 2 -11 4 -25 4 -14 0
-25 -4 -25 -9z"/>
<path d="M2100 1050 c0 -5 5 -10 11 -10 5 0 7 5 4 10 -3 6 -8 10 -11 10 -2 0
-4 -4 -4 -10z"/>
<path d="M620 1029 c0 -5 5 -7 12 -3 8 5 9 2 5 -9 -3 -10 -3 -17 2 -17 13 0
20 11 14 26 -6 16 -33 19 -33 3z"/>
<path d="M1500 1005 c0 -8 7 -15 15 -15 8 0 15 7 15 15 0 8 -7 15 -15 15 -8 0
-15 -7 -15 -15z"/>
<path d="M2350 1009 c0 -5 9 -9 20 -9 11 0 20 2 20 4 0 2 -9 6 -20 9 -11 3
-20 1 -20 -4z"/>
</g>
</svg>
